<mxfile host="app.diagrams.net" agent="Mozilla/5.0 (Windows NT 10.0; Win64; x64) AppleWebKit/537.36 (KHTML, like Gecko) Chrome/129.0.0.0 Safari/537.36" version="24.7.16">
  <diagram name="Page-1" id="tgpYdKGn0h0fmsbZr72Q">
    <mxGraphModel dx="1221" dy="725" grid="1" gridSize="10" guides="1" tooltips="1" connect="1" arrows="1" fold="1" page="1" pageScale="1" pageWidth="850" pageHeight="1100" math="0" shadow="0">
      <root>
        <mxCell id="0" />
        <mxCell id="1" parent="0" />
        <mxCell id="mhn6GUTvlfbYsG9DGbJt-2" value="" style="aspect=fixed;sketch=0;html=1;dashed=0;whitespace=wrap;verticalLabelPosition=bottom;verticalAlign=top;fillColor=#2875E2;strokeColor=#ffffff;points=[[0.005,0.63,0],[0.1,0.2,0],[0.9,0.2,0],[0.5,0,0],[0.995,0.63,0],[0.72,0.99,0],[0.5,1,0],[0.28,0.99,0]];shape=mxgraph.kubernetes.icon2;kubernetesLabel=1;prIcon=user" vertex="1" parent="1">
          <mxGeometry x="150" y="230" width="50" height="48" as="geometry" />
        </mxCell>
        <mxCell id="mhn6GUTvlfbYsG9DGbJt-11" style="edgeStyle=orthogonalEdgeStyle;rounded=0;orthogonalLoop=1;jettySize=auto;html=1;entryX=0;entryY=0.5;entryDx=0;entryDy=0;startArrow=block;startFill=1;" edge="1" parent="1" source="mhn6GUTvlfbYsG9DGbJt-3" target="mhn6GUTvlfbYsG9DGbJt-10">
          <mxGeometry relative="1" as="geometry" />
        </mxCell>
        <mxCell id="mhn6GUTvlfbYsG9DGbJt-12" value="WebCM (Web &lt;br&gt;Component Manager)&lt;br&gt;&lt;b&gt;Secure Routing&lt;/b&gt;" style="edgeLabel;html=1;align=center;verticalAlign=middle;resizable=0;points=[];" vertex="1" connectable="0" parent="mhn6GUTvlfbYsG9DGbJt-11">
          <mxGeometry x="0.0069" relative="1" as="geometry">
            <mxPoint as="offset" />
          </mxGeometry>
        </mxCell>
        <mxCell id="mhn6GUTvlfbYsG9DGbJt-13" style="edgeStyle=orthogonalEdgeStyle;rounded=0;orthogonalLoop=1;jettySize=auto;html=1;startArrow=classic;startFill=1;" edge="1" parent="1" source="mhn6GUTvlfbYsG9DGbJt-3" target="mhn6GUTvlfbYsG9DGbJt-14">
          <mxGeometry relative="1" as="geometry">
            <mxPoint x="322.5" y="400" as="targetPoint" />
          </mxGeometry>
        </mxCell>
        <mxCell id="mhn6GUTvlfbYsG9DGbJt-15" value="&lt;b&gt;Fetch adversary move&lt;/b&gt;" style="edgeLabel;html=1;align=center;verticalAlign=middle;resizable=0;points=[];labelBackgroundColor=#FFFAFA;" vertex="1" connectable="0" parent="mhn6GUTvlfbYsG9DGbJt-13">
          <mxGeometry x="0.2917" y="-1" relative="1" as="geometry">
            <mxPoint x="1" y="-1" as="offset" />
          </mxGeometry>
        </mxCell>
        <mxCell id="mhn6GUTvlfbYsG9DGbJt-18" value="" style="edgeStyle=orthogonalEdgeStyle;rounded=0;orthogonalLoop=1;jettySize=auto;html=1;" edge="1" parent="1" source="mhn6GUTvlfbYsG9DGbJt-3" target="mhn6GUTvlfbYsG9DGbJt-14">
          <mxGeometry relative="1" as="geometry" />
        </mxCell>
        <mxCell id="mhn6GUTvlfbYsG9DGbJt-3" value="Web browser (Client) serving &lt;br&gt;on port 1337" style="image;aspect=fixed;html=1;points=[];align=center;fontSize=12;image=img/lib/azure2/general/Browser.svg;" vertex="1" parent="1">
          <mxGeometry x="290" y="226" width="65" height="52" as="geometry" />
        </mxCell>
        <mxCell id="mhn6GUTvlfbYsG9DGbJt-4" style="edgeStyle=orthogonalEdgeStyle;rounded=0;orthogonalLoop=1;jettySize=auto;html=1;entryX=-0.036;entryY=0.545;entryDx=0;entryDy=0;entryPerimeter=0;" edge="1" parent="1" source="mhn6GUTvlfbYsG9DGbJt-2" target="mhn6GUTvlfbYsG9DGbJt-3">
          <mxGeometry relative="1" as="geometry" />
        </mxCell>
        <mxCell id="mhn6GUTvlfbYsG9DGbJt-16" value="&lt;b&gt;User input&lt;/b&gt;" style="edgeLabel;html=1;align=center;verticalAlign=middle;resizable=0;points=[];" vertex="1" connectable="0" parent="mhn6GUTvlfbYsG9DGbJt-4">
          <mxGeometry x="-0.1589" y="1" relative="1" as="geometry">
            <mxPoint as="offset" />
          </mxGeometry>
        </mxCell>
        <mxCell id="mhn6GUTvlfbYsG9DGbJt-10" value="Managed component" style="rounded=1;whiteSpace=wrap;html=1;" vertex="1" parent="1">
          <mxGeometry x="590" y="234" width="70" height="36" as="geometry" />
        </mxCell>
        <mxCell id="mhn6GUTvlfbYsG9DGbJt-14" value="Cloudflare worker (FAAS)" style="outlineConnect=0;dashed=0;verticalLabelPosition=bottom;verticalAlign=top;align=center;html=1;shape=mxgraph.aws3.lambda_function;fillColor=#5294CF;gradientColor=none;" vertex="1" parent="1">
          <mxGeometry x="292.5" y="360" width="60" height="63" as="geometry" />
        </mxCell>
        <mxCell id="mhn6GUTvlfbYsG9DGbJt-17" value="&lt;font style=&quot;font-size: 1px;&quot;&gt;.&lt;/font&gt;" style="text;html=1;align=center;verticalAlign=middle;whiteSpace=wrap;rounded=0;" vertex="1" parent="1">
          <mxGeometry x="60" y="100" width="60" height="30" as="geometry" />
        </mxCell>
      </root>
    </mxGraphModel>
  </diagram>
</mxfile>
